<svg width="16" height="16" viewBox="0 0 16 16" fill="none" xmlns="http://www.w3.org/2000/svg">
<path d="M15.2667 7.75385C15 7.63077 14.9333 7.38461 15 7.26154L15.6667 5.04615L13.3333 5.47692C13.2667 5.47692 13 5.47692 12.9333 5.04615L12.7333 4.30769L11.1333 6.03077C11.1333 6.03077 10.0667 7.07692 10.4 5.47692L11.0667 2.09231L9.8 2.70769C9.73333 2.70769 9.46667 2.76923 9.13333 2.15385L8 0L6.8 2.03077C6.46667 2.64615 6.2 2.58462 6.13333 2.58462L4.86667 1.96923L5.53333 5.35385C5.86667 6.95385 4.8 5.90769 4.8 5.90769L3.2 4.18462L3 4.92308C2.86667 5.35385 2.66667 5.35385 2.6 5.35385L0.266666 4.92308L0.933333 7.13846C0.933333 7.32308 0.933333 7.50769 0.666667 7.63077L0 8C0 8 2.66667 9.96923 3.53333 10.6462C3.73333 10.7692 4.13333 11.1385 4 11.5692L3.66667 12.4308L7.33333 11.9385C7.53333 11.9385 7.93333 11.9385 7.86667 12.4923L7.66667 16H8.33333L8.13333 12.4923C8.13333 11.9385 8.53333 11.9385 8.66667 11.9385L12.3333 12.4308L12 11.5692C11.8667 11.1385 12.2667 10.7692 12.4667 10.6462C13.3333 9.96923 16 8 16 8L15.2667 7.75385Z" fill="#C14037"/>
<path d="M15.2667 7.75385C15 7.63077 14.9333 7.38461 15 7.26154L15.6667 5.04615L13.3333 5.47692C13.2667 5.47692 13 5.47692 12.9333 5.04615L12.7333 4.30769L11.1333 6.03077C11.1333 6.03077 10.0667 7.07692 10.4 5.47692L11.0667 2.09231L9.8 2.70769C9.73333 2.70769 9.46667 2.76923 9.13333 2.15385L8 0L6.8 2.03077C6.46667 2.64615 6.2 2.58462 6.13333 2.58462L4.86667 1.96923L5.53333 5.35385C5.86667 6.95385 4.8 5.90769 4.8 5.90769L3.2 4.18462L3 4.92308C2.86667 5.35385 2.66667 5.35385 2.6 5.35385L0.266666 4.92308L0.933333 7.13846C0.933333 7.32308 0.933333 7.50769 0.666667 7.63077L0 8C0 8 2.66667 9.96923 3.53333 10.6462C3.73333 10.7692 4.13333 11.1385 4 11.5692L3.66667 12.4308L7.33333 11.9385C7.53333 11.9385 7.93333 11.9385 7.86667 12.4923L7.66667 16H8.33333L8.13333 12.4923C8.13333 11.9385 8.53333 11.9385 8.66667 11.9385L12.3333 12.4308L12 11.5692C11.8667 11.1385 12.2667 10.7692 12.4667 10.6462C13.3333 9.96923 16 8 16 8L15.2667 7.75385Z" fill="#C14037"/>
<path d="M5.28338 13.078L5.27638 12.091C5.13172 12.0677 4.98238 12.0303 4.82838 11.979C4.67438 11.923 4.52972 11.853 4.39438 11.769L4.40838 12.063H3.86938V10.425H4.32438C4.38972 10.817 4.52972 11.1133 4.74438 11.314C4.95905 11.51 5.22972 11.608 5.55638 11.608C5.80372 11.608 5.99505 11.5427 6.13038 11.412C6.26572 11.2767 6.33338 11.1087 6.33338 10.908C6.33338 10.7493 6.28438 10.621 6.18638 10.523C6.09305 10.425 5.96705 10.341 5.80838 10.271C5.65438 10.1963 5.48872 10.124 5.31138 10.054C5.04072 9.942 4.78872 9.81133 4.55538 9.662C4.32672 9.508 4.14238 9.32367 4.00238 9.109C3.86238 8.88967 3.79238 8.62833 3.79238 8.325C3.79238 8.185 3.81338 8.04033 3.85538 7.891C3.89738 7.74167 3.96972 7.60167 4.07238 7.471C4.17505 7.34033 4.31738 7.23067 4.49938 7.142C4.68138 7.05333 4.91238 7.002 5.19238 6.988V6.141H5.85038L5.84338 7.058C5.94605 7.086 6.04405 7.121 6.13738 7.163C6.23538 7.205 6.32638 7.25867 6.41038 7.324L6.38938 7.037H6.93538V8.668H6.47338C6.43138 8.40667 6.36372 8.18967 6.27038 8.017C6.18172 7.83967 6.06272 7.70667 5.91338 7.618C5.76405 7.52933 5.57972 7.48733 5.36038 7.492C5.22972 7.492 5.11538 7.51767 5.01738 7.569C4.91938 7.62033 4.84238 7.69267 4.78638 7.786C4.73038 7.87467 4.70238 7.97733 4.70238 8.094C4.70238 8.23867 4.73505 8.36233 4.80038 8.465C4.86572 8.563 4.97538 8.65867 5.12938 8.752C5.28805 8.84533 5.50038 8.95267 5.76638 9.074C5.93905 9.14867 6.11405 9.235 6.29138 9.333C6.46872 9.42633 6.62972 9.536 6.77438 9.662C6.92372 9.788 7.04272 9.935 7.13138 10.103C7.22005 10.271 7.26438 10.4693 7.26438 10.698C7.26438 10.9407 7.21305 11.16 7.11038 11.356C7.00772 11.552 6.85605 11.713 6.65538 11.839C6.45938 11.965 6.21672 12.049 5.92738 12.091L5.92038 13.078H5.28338Z" fill="white"/>
</svg>
